<?xml version="1.0" encoding="utf-8"?>
<!-- Generator: Adobe Illustrator 21.1.0, SVG Export Plug-In . SVG Version: 6.00 Build 0)  -->
<svg version="1.1" id="Layer_1" xmlns="http://www.w3.org/2000/svg" xmlns:xlink="http://www.w3.org/1999/xlink" x="0px" y="0px"
	 viewBox="0 0 160.5 37.7" style="enable-background:new 0 0 160.5 37.7;" xml:space="preserve">
<style type="text/css">
	.st0{fill:#02A5E9;}
	.st1{enable-background:new    ;}
	.st2{fill:#2A2A2A;}
	.st3{fill:#5E5E5E;}
</style>
<path class="st0" d="M34.3,1.6H4.9c-1.7,0-3,1.3-3,3V33c0,1.7,1.3,3,3,3h29.4c1.7,0,3-1.3,3-3V4.6C37.3,2.9,36,1.6,34.3,1.6z
	 M32.5,4.9c0.7,0,1.3,0.6,1.3,1.3s-0.6,1.3-1.3,1.3s-1.3-0.6-1.3-1.3C31.1,5.5,31.7,4.9,32.5,4.9z M28.6,4.9c0.7,0,1.3,0.6,1.3,1.3
	s-0.6,1.3-1.3,1.3c-0.7,0-1.3-0.6-1.3-1.3C27.2,5.5,27.8,4.9,28.6,4.9z M24.6,4.9c0.7,0,1.3,0.6,1.3,1.3s-0.6,1.3-1.3,1.3
	c-0.7,0-1.3-0.6-1.3-1.3C23.3,5.5,23.9,4.9,24.6,4.9z M35.9,32.9c0,0.9-0.7,1.6-1.6,1.6H4.9c-0.9,0-1.6-0.7-1.6-1.6V10.7h32.5v22.2
	H35.9z"/>
<g class="st1">
	<path class="st2" d="M47.6,17.9c0.1,0,0.2,0,0.3,0c0.1,0,0.2,0,0.3-0.1c0.1,0,0.2-0.1,0.3-0.1s0.2-0.1,0.4-0.1
		c0.2-0.1,0.3-0.1,0.4-0.2s0.2-0.1,0.4-0.2c1-0.4,1.7-0.8,2.1-1.1c0.4-0.3,0.7-0.4,0.9-0.4c0.2-0.1,0.3,0,0.5,0.2
		c0.1,0.2,0.2,0.4,0.2,0.6c0,0.3-0.1,0.5-0.4,0.8c-0.3,0.3-0.6,0.5-1,0.8c-0.2,0.2-0.5,0.4-1.1,0.6c-0.5,0.4-1.2,0.7-1.9,1
		s-1.4,0.4-1.9,0.2c-1.2-0.4-1.9-1-2.2-1.8c-0.3-0.8-0.4-1.7-0.4-2.8c0-1.3,0.2-2.5,0.7-3.7c0,0,0.1-0.3,0.3-0.7
		c0.2-0.5,0.3-0.8,0.4-0.9c0.2-0.6,0.7-1.3,1.3-2.2C48,6.6,48.6,5.7,49,5.2c0.4-0.5,1.2-1,2.2-1.7C51.5,3.3,52,3.1,52.4,3
		c0.5-0.1,1,0,1.5,0.3C54.4,3.6,54.8,4,55,4.5c0.3,0.6,0.3,1.5,0,2.6c-0.4,1.2-0.8,2-1.5,2.6c-0.4,0.3-1,0.2-1.5-0.4
		c-0.2-0.3-0.2-0.5-0.2-0.5s0.1,0,0.1,0c0.1-0.2,0.3-0.5,0.6-0.9c0.3-0.5,0.4-0.8,0.5-1S53,6.5,53,6.3c0-0.2,0.1-0.3,0.1-0.4
		c0-0.1,0-0.2,0-0.3c0-0.1,0-0.2,0-0.2s0-0.1,0-0.2c0-0.1-0.1-0.2-0.2-0.3c-0.1-0.1-0.4,0-0.8,0.2c-0.7,0.3-1.6,1.1-2.6,2.5
		c-1.3,1.7-2.1,3-2.4,3.9l-0.2,0.6c0,0.2,0,0.6-0.3,1c-0.2,1-0.3,2-0.3,2.8c0.1,1.1,0.3,1.7,0.8,1.9C47.4,17.9,47.5,17.9,47.6,17.9z
		"/>
	<path class="st2" d="M57,11.3c0.7-0.6,1.4-1,2-1.1c0.9-0.2,1.5-0.1,1.8,0.2c0.6,0.2,0.9,0.8,1,1.6c0.1,1.2-0.3,2.5-1.2,3.8
		c-0.5,0.8-1.3,1.5-2.2,2c-0.4,0.3-1.1,0.4-2,0.5c-0.2,0-0.5-0.1-0.9-0.4c-0.7-0.7-0.9-1.3-0.9-1.8l0-0.5c-0.1-0.1-0.1-0.1-0.1-0.2
		c0,0,0.1-0.1,0.1-0.1c0.1,0,0.1-0.1,0.1-0.2s0-0.4,0.2-0.8c0.1-0.4,0.3-0.8,0.5-1.1C55.9,12.4,56.4,11.8,57,11.3z M59.5,14.2
		c0-0.1,0.1-0.2,0.1-0.3c0.1-0.2,0.1-0.3,0.2-0.4c0.1-0.1,0.1-0.3,0.1-0.7c0-0.4,0-0.6-0.2-0.6c-0.2-0.1-0.3-0.1-0.4-0.1
		c-0.1,0-0.3,0.1-0.5,0.3c-1.1,0.9-1.8,1.9-2,3c0,0.4,0,0.6,0.1,0.8c0.1,0.2,0.3,0.2,0.6,0.1s0.6-0.2,0.8-0.5
		c0.2-0.2,0.4-0.4,0.5-0.5c0.1-0.1,0.1-0.1,0.2-0.2c0.1-0.1,0.1-0.1,0.2-0.3c0.1-0.1,0.1-0.2,0.1-0.2c0-0.1,0.1-0.1,0.1-0.3
		C59.4,14.3,59.5,14.2,59.5,14.2z"/>
	<path class="st2" d="M64,11.1l0-0.5c0-0.2,0.1-0.4,0.3-0.6c0.2-0.2,0.5-0.2,0.8-0.2s0.6,0.1,0.8,0.4c0.2,0.3,0.3,0.5,0.3,0.8
		s-0.1,0.5-0.2,0.8l-0.8,1.9c0,0,0,0.1,0,0.1c0,0,0.2-0.1,0.6-0.4c0.3-0.3,0.8-0.7,1.5-1.2s1.1-0.8,1.4-0.8c0.2,0,0.5,0.1,0.7,0.4
		c0.3,0.3,0.4,0.6,0.4,0.9c-0.2,1-0.4,1.6-0.5,1.7c0.3-0.3,0.8-0.7,1.5-1.2s1.2-0.7,1.5-0.7c0.5,0,0.8,0.2,1,0.7
		c0.2,0.4,0.3,1,0.3,1.7c0,0.7,0.1,1.2,0.2,1.4c0,0.1,0.1,0.2,0.3,0.2s0.3,0.1,0.4,0.2c0.1,0.1,0.2,0.3,0.2,0.5
		c0,0.6-0.5,0.9-1.5,0.9c-0.4,0-0.8-0.2-1.1-0.7s-0.5-1-0.5-1.6c0-0.2,0-0.5,0.1-0.7c0-0.2,0.1-0.4,0.1-0.4s0-0.1-0.1-0.1
		c-0.4,0-1.2,0.7-2.5,2.1c0,0-0.1,0.1-0.1,0.1c-0.1,0.1-0.3,0.2-0.5,0.4c-0.4,0.4-0.7,0.6-0.9,0.6c-0.2,0-0.3,0-0.4-0.1l-0.2-0.2
		c-0.2-0.1-0.3-0.3-0.3-0.6v-0.1l0.5-1.5c0.4-0.8,0.6-1.3,0.6-1.3s0-0.1,0-0.1c-0.2,0-0.6,0.3-1.2,1c-0.6,0.7-1.1,1.2-1.3,1.4
		c-0.2,0.2-0.5,0.5-0.7,0.8c-0.2,0.3-0.4,0.5-0.6,0.7c-0.2,0.2-0.3,0.3-0.3,0.3c-0.3,0-0.6-0.1-0.9-0.4c-0.3-0.2-0.4-0.5-0.4-0.8
		c0-0.3,0-0.5,0.1-0.7s0.1-0.6,0.2-1c0.1-0.4,0.2-0.7,0.2-0.9c0-0.2,0.1-0.3,0.1-0.5s0-0.2,0.1-0.3c0,0,0-0.1,0.1-0.3
		c0.1-0.2,0.1-0.3,0.2-0.5c0.1-0.2,0.2-0.5,0.4-0.9C63.9,11.5,64,11.3,64,11.1z"/>
	<path class="st2" d="M74.5,18.6l0.2-0.8c0.1-0.4,0.4-1.3,0.9-2.8c0.5-1.5,0.9-2.7,1.3-3.6c0.4-1,0.6-1.6,0.6-1.9
		c0-0.1,0.1-0.2,0.2-0.4C77.8,9,78,9,78.2,9c0.2,0,0.4,0.1,0.6,0.2C79,9.6,79.1,10,79,10.5c0,0.3-0.2,0.7-0.5,1.1c0,0,0,0.1,0,0
		c0.9-0.5,1.6-0.7,2.2-0.6c0.6,0.1,1.1,0.3,1.4,0.8c0.3,0.4,0.5,0.9,0.5,1.5c0,0.2-0.1,0.6-0.4,1.1s-0.4,0.8-0.6,0.9
		c-0.1,0-0.2,0.2-0.4,0.5c-0.2,0.2-0.5,0.5-1,0.7c-0.5,0.3-0.8,0.4-1,0.3c-0.1,0-0.1,0.1-0.1,0.2c0,0.1-0.2,0.2-0.7,0.3
		s-0.9,0.2-1.1,0.2s-0.5-0.1-0.6-0.2c-0.1,0.1-0.2,0.2-0.2,0.3s-0.1,0.3-0.2,0.6c-0.1,0.3-0.3,0.5-0.4,0.5c-0.1,0.1-0.1,0.2,0,0.2
		c0,0.3,0,0.5-0.1,0.7c0,0.4-0.1,0.7-0.2,1.1c0,0.2,0,0.3-0.1,0.5c-0.1,0.2-0.1,0.3-0.2,0.3c-0.1,0-0.1,0.2-0.1,0.6
		c0,0.4-0.1,0.7-0.3,1c-0.2,0.3-0.4,0.4-0.6,0.4c-0.3,0-0.5,0-0.5-0.2c-0.3-0.4-0.4-0.9-0.3-1.3c0.2-0.6,0.2-1,0.2-1.3l0.1-0.7
		c0.2-0.3,0.2-0.6,0.2-1C74.2,18.9,74.3,18.8,74.5,18.6z M77.3,15.9c0.2,0,0.6-0.1,1.2-0.3c0.6-0.2,1-0.4,1.2-0.6
		c0.2-0.2,0.4-0.4,0.6-0.5s0.2-0.3,0.4-0.5c0.2-0.3,0.2-0.7,0-1.1c-0.4-0.5-1.2-0.2-2.4,0.9c-0.5,0.5-0.8,1-0.9,1.5
		C77.1,15.7,77.1,15.9,77.3,15.9z"/>
	<path class="st2" d="M89.5,16.4l0.1-1.5v-0.4c0-0.3-0.1-0.4-0.3-0.4c-0.3,0-0.8,0.3-1.5,0.8c-1.3,0.9-2.3,1.8-2.9,2.6
		c-0.1,0.1-0.2,0.2-0.3,0.3c-0.1,0-0.2,0-0.4,0s-0.4-0.2-0.6-0.4c-0.3-0.3-0.4-0.5-0.5-0.7c0-0.6,0.3-1.5,0.9-2.6
		c0.1-0.2,0.3-0.7,0.6-1.5c0.3-0.8,0.5-1.4,0.6-1.8l0,0c0-0.1,0.1-0.2,0.2-0.2c0,0,0.2-0.1,0.4-0.1c0.3,0,0.5,0.1,0.8,0.3
		c0.3,0.2,0.4,0.5,0.4,0.9c0,0.4-0.2,0.9-0.6,1.7c-0.4,0.8-0.6,1.2-0.6,1.2c0.2-0.2,0.7-0.5,1.3-1c1.5-1.2,2.4-1.8,2.8-1.8
		c0.2,0,0.5,0.1,0.8,0.3c0.3,0.2,0.5,0.4,0.6,0.6l-0.1,1l0,1.2c0,0.5,0,0.8-0.1,1l0.1,0.1c-0.1,0.1,0,0.3,0.2,0.7
		c0.2,0.4,0.3,0.6,0.3,0.7c0,0.1-0.1,0.2-0.3,0.4s-0.4,0.3-0.6,0.3C90,17.9,89.5,17.4,89.5,16.4z"/>
	<path class="st2" d="M93.4,17.4c0-0.1-0.1-0.3-0.3-0.5c-0.2-0.2,0.2-1.4,1.4-3.4c0.1-0.1,0.2-0.2,0.3-0.5c0.1-0.2,0.2-0.3,0.3-0.4
		c0-0.1,0-0.1,0.1-0.2c0-0.1,0.1-0.1,0.2-0.1l0.2-0.4c0.1-0.1,0.3-0.4,0.9-0.9c0.5-0.5,0.9-0.8,1.2-1c0.3-0.2,0.6-0.3,0.9-0.3
		c0.3,0,0.6,0.1,0.8,0.3c0,0,0.1,0.1,0.3,0.2c0.3,0.2,0.9,0.8,1.9,1.6l-0.4,1.1c-0.3,1-0.2,1.9,0.3,2.7c0.1,0.3,0.4,0.5,0.7,0.6
		s0.5,0.2,0.5,0.5c0,0.6-0.2,0.9-0.6,1c-1.1,0.2-2-0.3-2.6-1.4c-0.2-0.3-0.3-0.6-0.4-1c-0.1,0.1-0.3,0.3-0.5,0.6c-2,2-3.5,2.7-4.5,2
		c0-0.1-0.2-0.2-0.4-0.4C93.5,17.5,93.4,17.4,93.4,17.4z M98.5,11.7c-0.5,0-1.4,1-2.7,3.1c-0.2,0.4-0.4,0.8-0.6,1.4
		c0.2,0,0.7-0.2,1.4-0.8c0.1-0.1,0.3-0.3,0.5-0.5s0.4-0.3,0.5-0.4s0.2-0.2,0.4-0.4c0.3-0.3,0.5-0.6,0.7-0.9l0.5-0.8
		C99,11.9,98.8,11.7,98.5,11.7z"/>
	<path class="st2" d="M99.4,21.4c0.2-0.2,0.4-0.3,0.6-0.3s0.4,0,0.5,0.1c0.6,0.4,1.1,0.5,1.6,0.4s1-0.5,1.6-1.3
		c0.6-1,1.1-1.8,1.4-2.4c-0.3-0.2-0.6-0.5-0.9-0.9s-0.4-0.7-0.4-0.9V16c-0.2,0-0.3-0.5-0.3-1.4c-0.1-0.9-0.1-1.6,0-1.9s0.1-1,0.2-2
		c0-0.4,0.1-0.7,0.4-0.9c0.5-0.2,0.9-0.1,1.2,0.4s0.3,1.3,0.3,2.3c-0.1,2,0,3.2,0.4,3.7c0.1-0.4,0.2-0.6,0.3-0.7
		c0.2-0.4,0.3-0.7,0.3-0.8c0-0.1,0.1-0.2,0.1-0.3c0.1-0.1,0.2-0.4,0.4-0.9c0.4-1.1,0.6-1.7,0.7-1.9c0.1-0.2,0.2-0.3,0.2-0.4
		c0.1-0.1,0.1-0.2,0.1-0.3c0-0.1,0.1-0.1,0.1-0.2c0-0.1,0.1-0.1,0.1-0.2s0.1-0.1,0.1-0.1c0.1-0.1,0.1-0.1,0.2-0.2
		c0.2-0.2,0.5-0.2,0.8,0c0.2,0.2,0.4,0.4,0.5,0.5c0.2,0.4,0.1,0.9-0.3,1.6c-0.3,0.8-0.5,1.3-0.7,1.5c-0.5,1.1-0.9,2.1-1.3,2.8
		c-0.4,0.8-0.7,1.4-0.8,1.8c-0.9,1.5-1.6,2.5-2,2.9c-1,0.9-1.7,1.4-2.2,1.5c-0.8,0.2-1.5,0.1-2.2-0.1c-0.7-0.2-1.1-0.5-1.2-0.9
		C99.1,21.8,99.2,21.6,99.4,21.4z"/>
	<path class="st2" d="M123.7,17.1c0.4,0,1.1-2.1,2.2-6.3c0.2-0.8,0.4-1.8,0.6-2.9c0.5-1.8,0.7-2.8,0.7-2.9V4.5
		c0.1,0,0.1-0.1,0.2-0.3c0.1-0.2,0.1-0.4,0.1-0.7s0.1-0.5,0.3-0.7c0.2-0.4,0.6-0.5,1-0.4c0.4,0.1,0.7,0.4,0.7,0.7
		c0.1,0.3-0.1,1.5-0.6,3.4c0,0.2-0.1,0.7-0.3,1.5c-0.2,0.8-0.3,1.4-0.4,1.7c-0.1,1-0.3,1.4-0.4,1.4c-0.6,2.6-1.4,4.9-2.3,7.1
		c-0.4,0.8-0.8,1.4-1.4,1.6c-0.5,0.2-1,0-1.5-0.6c-0.4-0.6-0.8-1.2-1-1.7c-0.2-0.6-0.4-1.4-0.5-2.6c-0.3-2-0.4-3.6-0.4-5
		s0-2.1-0.2-2.1c-0.1,0-0.3,0.4-0.6,1.1s-0.6,1.6-0.9,2.5c-0.4,0.9-0.6,1.4-0.6,1.5c-0.3,0.5-0.5,1.1-0.6,1.6
		c-0.6,1.6-1,2.8-1.3,3.8c-0.3,1-0.4,1.6-0.6,1.9c-0.1,0.3-0.2,0.4-0.3,0.5c-0.1,0.1-0.4,0-0.7-0.2c-0.4-0.2-0.6-0.5-0.7-0.9
		c-0.1-0.4,0-0.8,0.1-1.2c0.1-0.4,0.3-0.9,0.6-1.6s0.5-1.3,0.6-1.9c0.5-1.2,0.9-2.2,1.2-3.2c0-0.1,0.4-0.9,1.1-2.5
		c0.6-1.6,1.3-3,2.1-4.3c0.3-0.4,0.7-0.6,1.2-0.6c0.5,0.1,0.9,0.3,1,0.7c0.3,0.7,0.5,2.1,0.5,4.4c0,0.6,0,1.1,0,1.4
		c0,0.3,0,0.6,0.1,1.1c0,0.7,0.1,1.4,0.3,2c0,0.2,0.1,0.6,0.2,1.3C123.4,16.4,123.6,17.1,123.7,17.1z"/>
	<path class="st2" d="M128.2,17.4c0-0.1-0.1-0.3-0.3-0.5c-0.2-0.2,0.2-1.4,1.4-3.4c0.1-0.1,0.2-0.2,0.3-0.5c0.1-0.2,0.2-0.3,0.3-0.4
		c0-0.1,0-0.1,0.1-0.2c0-0.1,0.1-0.1,0.2-0.1l0.2-0.4c0.1-0.1,0.3-0.4,0.9-0.9c0.5-0.5,0.9-0.8,1.2-1c0.3-0.2,0.6-0.3,0.9-0.3
		c0.3,0,0.6,0.1,0.8,0.3c0,0,0.1,0.1,0.3,0.2c0.3,0.2,0.9,0.8,1.9,1.6l-0.4,1.1c-0.3,1-0.2,1.9,0.3,2.7c0.1,0.3,0.4,0.5,0.7,0.6
		s0.5,0.2,0.5,0.5c0,0.6-0.2,0.9-0.6,1c-1.1,0.2-2-0.3-2.6-1.4c-0.2-0.3-0.3-0.6-0.4-1c-0.1,0.1-0.3,0.3-0.5,0.6c-2,2-3.5,2.7-4.5,2
		c0-0.1-0.2-0.2-0.4-0.4C128.3,17.5,128.2,17.4,128.2,17.4z M133.4,11.7c-0.5,0-1.4,1-2.7,3.1c-0.2,0.4-0.4,0.8-0.6,1.4
		c0.2,0,0.7-0.2,1.4-0.8c0.1-0.1,0.3-0.3,0.5-0.5s0.4-0.3,0.5-0.4s0.2-0.2,0.4-0.4c0.3-0.3,0.5-0.6,0.7-0.9l0.5-0.8
		C133.9,11.9,133.6,11.7,133.4,11.7z"/>
	<path class="st2" d="M139.3,11.1l0-0.5c0-0.2,0.1-0.4,0.3-0.6c0.2-0.2,0.5-0.2,0.8-0.2c0.3,0,0.6,0.1,0.8,0.4
		c0.2,0.3,0.3,0.5,0.3,0.8s-0.1,0.5-0.2,0.8l-0.8,1.9c0,0,0,0.1,0,0.1c0,0,0.2-0.1,0.6-0.4c0.3-0.3,0.8-0.7,1.5-1.2
		c0.7-0.5,1.1-0.8,1.4-0.8c0.2,0,0.5,0.1,0.7,0.4c0.3,0.3,0.4,0.6,0.4,0.9c-0.2,1-0.4,1.6-0.5,1.7c0.3-0.3,0.8-0.7,1.5-1.2
		s1.2-0.7,1.5-0.7c0.5,0,0.8,0.2,1,0.7c0.2,0.4,0.3,1,0.3,1.7c0,0.7,0.1,1.2,0.2,1.4c0,0.1,0.1,0.2,0.3,0.2c0.2,0,0.3,0.1,0.4,0.2
		c0.1,0.1,0.2,0.3,0.2,0.5c0,0.6-0.5,0.9-1.5,0.9c-0.4,0-0.8-0.2-1.1-0.7s-0.5-1-0.5-1.6c0-0.2,0-0.5,0.1-0.7c0-0.2,0.1-0.4,0.1-0.4
		s0-0.1-0.1-0.1c-0.4,0-1.2,0.7-2.5,2.1c0,0-0.1,0.1-0.1,0.1c-0.1,0.1-0.3,0.2-0.5,0.4c-0.4,0.4-0.7,0.6-0.9,0.6
		c-0.2,0-0.3,0-0.4-0.1l-0.2-0.2c-0.2-0.1-0.3-0.3-0.3-0.6v-0.1l0.5-1.5c0.4-0.8,0.5-1.3,0.5-1.3s0-0.1,0-0.1c-0.2,0-0.6,0.3-1.2,1
		c-0.6,0.7-1.1,1.2-1.3,1.4c-0.2,0.2-0.5,0.5-0.7,0.8c-0.2,0.3-0.4,0.5-0.6,0.7c-0.2,0.2-0.3,0.3-0.3,0.3c-0.3,0-0.6-0.1-0.9-0.4
		s-0.4-0.5-0.4-0.8c0-0.3,0-0.5,0.1-0.7s0.1-0.6,0.2-1c0.1-0.4,0.2-0.7,0.2-0.9c0-0.2,0.1-0.3,0.1-0.5s0-0.2,0.1-0.3
		c0,0,0-0.1,0.1-0.3c0.1-0.2,0.1-0.3,0.2-0.5c0.1-0.2,0.2-0.5,0.4-0.9C139.3,11.5,139.3,11.3,139.3,11.1z"/>
	<path class="st2" d="M155.1,9.8c0.9,0,1.5,0.2,1.9,0.6c0.4,0.4,0.6,0.8,0.6,1.2v0.2c0,0.3-0.2,0.8-0.6,1.5c-0.2,0.4-0.5,0.7-0.9,1
		c-0.4,0.3-0.9,0.4-1.3,0.5s-0.8,0-1.2-0.1c-0.4-0.1-0.6-0.1-0.7-0.1s-0.2,0.1-0.2,0.2c-0.1,0.2-0.2,0.5-0.2,0.9
		c0,0.4,0.2,0.7,0.3,0.9c0.2,0.2,0.4,0.2,0.7,0.2c0.3,0,0.5-0.1,0.7-0.2c0.2-0.1,0.5-0.3,0.8-0.5c0.3-0.3,0.6-0.4,0.7-0.4
		s0.4,0.1,0.5,0.3c0.2,0.2,0.3,0.3,0.3,0.5c0,0.3-0.4,0.8-1,1.3s-1.4,0.8-2.2,0.8s-1.5-0.2-2-0.7c-0.5-0.5-0.8-1.1-0.8-2
		c0-0.3,0-0.7,0.1-1.1c0-0.4,0.2-0.9,0.4-1.4c0.2-0.6,0.6-1.2,1.1-1.8c0.5-0.6,1-1.1,1.6-1.4S154.7,9.8,155.1,9.8z M154.9,11.4
		c-0.2,0-0.5,0.2-0.8,0.5s-0.7,0.7-0.9,1.1c0,0.2,0.3,0.3,0.7,0.3c0.5,0,0.7,0,0.9-0.1c0.1-0.1,0.3-0.2,0.6-0.5
		c0.3-0.3,0.5-0.5,0.5-0.6c0-0.3-0.2-0.5-0.7-0.5H154.9z"/>
</g>
<g class="st1">
	<path class="st3" d="M45.1,27.8v-0.7H49v0.7h-1.5v4.8h-0.9v-4.8H45.1z"/>
	<path class="st3" d="M55.7,32.6l-0.4-1.1H53l-0.4,1.1h-1l2-5.6h1.1l2,5.6H55.7z M53.2,30.8H55l-0.9-2.6L53.2,30.8z"/>
	<path class="st3" d="M62,32.7c-0.8,0-1.4-0.3-2-0.8s-0.8-1.2-0.8-2s0.3-1.5,0.8-2s1.2-0.8,2-0.8c0.6,0,1.1,0.1,1.6,0.4
		c0.5,0.3,0.8,0.7,1,1.2h-1.1c-0.3-0.6-0.8-0.8-1.5-0.8c-0.6,0-1,0.2-1.4,0.6c-0.4,0.4-0.5,0.9-0.5,1.5s0.2,1.1,0.5,1.5
		c0.4,0.4,0.8,0.6,1.3,0.6c0.5,0,0.9-0.1,1.3-0.4c0.3-0.3,0.5-0.7,0.6-1.1h-2.1v-0.7h3.1v0.7c-0.1,0.7-0.4,1.2-0.9,1.7
		C63.4,32.4,62.8,32.7,62,32.7z"/>
	<path class="st3" d="M67.7,27.1h0.9v4.9h1.9v0.7h-2.8V27.1z"/>
	<path class="st3" d="M73.3,32.6v-5.6h0.9v5.6H73.3z"/>
	<path class="st3" d="M81,27h0.9v5.6H81l-2.7-4.2v4.2h-0.9V27h0.9l2.7,4.1V27z"/>
	<path class="st3" d="M88.2,27v0.7H86v1.7H88v0.7H86v1.8h2.2v0.7h-3.1V27H88.2z"/>
	<path class="st3" d="M98.2,32.7c-0.8,0-1.4-0.3-2-0.8c-0.5-0.5-0.8-1.2-0.8-2s0.3-1.5,0.8-2c0.5-0.5,1.2-0.8,2-0.8
		c0.6,0,1.1,0.1,1.6,0.4c0.5,0.3,0.8,0.7,1,1.2h-1.1c-0.3-0.6-0.8-0.8-1.5-0.8c-0.6,0-1,0.2-1.4,0.6c-0.4,0.4-0.5,0.9-0.5,1.5
		s0.2,1.1,0.5,1.5c0.4,0.4,0.8,0.6,1.3,0.6c0.5,0,0.9-0.1,1.3-0.4c0.3-0.3,0.5-0.7,0.6-1.1h-2.1v-0.7h3.1v0.7
		c-0.1,0.7-0.4,1.2-0.9,1.7C99.6,32.4,99,32.7,98.2,32.7z"/>
	<path class="st3" d="M106.4,32.7c-0.8,0-1.5-0.3-2-0.8c-0.5-0.5-0.8-1.2-0.8-2s0.3-1.5,0.8-2c0.5-0.5,1.2-0.8,2-0.8s1.5,0.3,2,0.8
		c0.5,0.5,0.8,1.2,0.8,2s-0.3,1.5-0.8,2C107.9,32.4,107.2,32.7,106.4,32.7z M106.4,31.8c0.6,0,1-0.2,1.4-0.6
		c0.4-0.4,0.5-0.9,0.5-1.5s-0.2-1.1-0.5-1.5s-0.8-0.6-1.4-0.6s-1,0.2-1.4,0.6s-0.5,0.9-0.5,1.5s0.2,1.1,0.5,1.5
		C105.4,31.7,105.9,31.8,106.4,31.8z"/>
	<path class="st3" d="M115.3,27v0.7h-2.2v1.7h1.9v0.7h-1.9v1.8h2.2v0.7h-3.1V27H115.3z"/>
	<path class="st3" d="M120.1,27.7c-0.3,0-0.5,0.1-0.7,0.2c-0.2,0.1-0.3,0.3-0.3,0.6c0,0.3,0.1,0.5,0.3,0.6c0.2,0.1,0.4,0.2,0.7,0.3
		c0.3,0.1,0.6,0.1,0.9,0.2c0.3,0.1,0.5,0.2,0.7,0.5c0.2,0.2,0.3,0.5,0.3,1c0,0.4-0.2,0.8-0.5,1.1s-0.8,0.5-1.4,0.5
		c-0.6,0-1.1-0.1-1.4-0.4c-0.4-0.3-0.5-0.6-0.5-1.1h1c0,0.2,0.1,0.4,0.3,0.6c0.2,0.1,0.4,0.2,0.7,0.2s0.6-0.1,0.7-0.2
		s0.3-0.3,0.3-0.6s-0.1-0.4-0.2-0.5s-0.3-0.2-0.4-0.3c-0.2-0.1-0.4-0.1-0.6-0.2c-0.2,0-0.4-0.1-0.6-0.2c-0.2-0.1-0.4-0.1-0.6-0.2
		c-0.2-0.1-0.3-0.2-0.4-0.4s-0.2-0.4-0.2-0.7c0-0.5,0.2-0.9,0.5-1.2c0.3-0.3,0.8-0.4,1.4-0.4c0.6,0,1,0.1,1.3,0.4
		c0.3,0.3,0.5,0.6,0.6,1.1h-1c0-0.2-0.1-0.4-0.3-0.5C120.6,27.8,120.4,27.7,120.1,27.7z"/>
	<path class="st3" d="M133.1,27.1h0.9v5.6h-0.9v-2.5h-2.6v2.5h-0.9v-5.6h0.9v2.4h2.6V27.1z"/>
	<path class="st3" d="M140.3,27v0.7h-2.2v1.7h1.9v0.7h-1.9v1.8h2.2v0.7h-3.1V27H140.3z"/>
	<path class="st3" d="M144.3,30.4v2.3h-0.9v-5.6h1.9c0.6,0,1.1,0.2,1.5,0.5c0.3,0.3,0.5,0.7,0.5,1.2c0,0.4-0.1,0.7-0.3,1
		c-0.2,0.3-0.6,0.5-1,0.6l1.5,2.3h-1.1l-1.4-2.3H144.3z M144.3,27.8v1.9h1c0.3,0,0.6-0.1,0.8-0.2s0.3-0.4,0.3-0.7s-0.1-0.5-0.3-0.7
		c-0.2-0.2-0.4-0.2-0.8-0.2H144.3z"/>
	<path class="st3" d="M153.6,27v0.7h-2.2v1.7h1.9v0.7h-1.9v1.8h2.2v0.7h-3.1V27H153.6z"/>
</g>
<path class="st0" d="M27.3,14.7H13.1c-0.2,0-0.5,0.1-0.6,0.4c-0.1,0.2-0.1,0.5,0.1,0.7l5.2,7.3l0,0c0.2,0.3,0.3,0.6,0.3,0.9v6
	c0,0.2,0.1,0.3,0.2,0.5s0.3,0.2,0.5,0.2c0.1,0,0.2,0,0.3-0.1l2.9-1.1c0.3-0.1,0.4-0.3,0.4-0.6v-4.8c0-0.3,0.1-0.6,0.3-0.9l0,0
	l5.2-7.3c0.1-0.2,0.2-0.5,0.1-0.7C27.8,14.8,27.5,14.7,27.3,14.7L27.3,14.7z M22,22.6c-0.3,0.4-0.4,0.9-0.4,1.4v4.7l-2.7,1v-5.8
	c0-0.5-0.2-1-0.4-1.4l-5-7.1H27L22,22.6z"/>
</svg>
